# xmcd
#
# Track frame offsets:
#	150
#	14625
#	25768
#	42478
#	45764
#	57936
#	73558
#	93900
#	104964
#	119713
#	136444
#
# Disc length: 1993 seconds
#
# Revision: 1
# Processed by: cddbd v1.5.2PL0 Copyright (c) Steve Scherf et al.
# Submitted via: audiograbber 1.80
#
DISCID=9c07c70b
DTITLE=The Drivers - Runnin Jumpin Standin Still
DYEAR=1900
DGENRE=
TTITLE0=Runnin Jumpin Standin Still
TTITLE1=Run with the wild Ones
TTITLE2=Black is the Colour
TTITLE3=Black Coda
TTITLE4=Have Love will Travel
TTITLE5=Blues is my Business
TTITLE6=Rambling Shoes
TTITLE7=Ye Crazy Daddies
TTITLE8=Holding the Devil´s Hand
TTITLE9=Flexible
TTITLE10=Banjo the Band of the Bush
EXTD=
EXTT0=
EXTT1=
EXTT2=
EXTT3=
EXTT4=
EXTT5=
EXTT6=
EXTT7=
EXTT8=
EXTT9=
EXTT10=
PLAYORDER=
